<?xml version="1.0" encoding="UTF-8" standalone="no"?>
<!-- Created with Inkscape (http://www.inkscape.org/) -->

<svg
   width="210mm"
   height="297mm"
   viewBox="0 0 210 297"
   version="1.1"
   id="svg1"
   inkscape:version="1.4 (e7c3feb1, 2024-10-09)"
   sodipodi:docname="gingerbread.svg"
   xmlns:inkscape="http://www.inkscape.org/namespaces/inkscape"
   xmlns:sodipodi="http://sodipodi.sourceforge.net/DTD/sodipodi-0.dtd"
   xmlns="http://www.w3.org/2000/svg"
   xmlns:svg="http://www.w3.org/2000/svg">
  <sodipodi:namedview
     id="namedview1"
     pagecolor="#ffffff"
     bordercolor="#000000"
     borderopacity="0.25"
     inkscape:showpageshadow="2"
     inkscape:pageopacity="0.0"
     inkscape:pagecheckerboard="0"
     inkscape:deskcolor="#d1d1d1"
     inkscape:document-units="mm"
     inkscape:zoom="0.62520262"
     inkscape:cx="355.08488"
     inkscape:cy="585.41021"
     inkscape:window-width="1376"
     inkscape:window-height="787"
     inkscape:window-x="0"
     inkscape:window-y="25"
     inkscape:window-maximized="0"
     inkscape:current-layer="layer1" />
  <defs
     id="defs1" />
  <g
     inkscape:label="Layer 1"
     inkscape:groupmode="layer"
     id="layer1">
    <path
       style="fill:#000000;fill-opacity:0.62645912;stroke:#000000;stroke-width:1.065;stroke-opacity:0.02723735"
       d="m 84.639228,78.291284 h 46.128382 l -0.84639,38.934046 47.39796,0.4232 0.4232,16.92784 -48.24436,-1.26958 0.4232,28.35413 39.35723,69.40416 -25.81496,0.8464 -26.23816,-59.67066 -19.043828,-1.26958 -30.893316,60.09385 -23.275788,-1.69279 41.050025,-68.55777 2.539175,-24.54538 -49.937141,-2.11598 -1.269589,-16.50464 49.937142,-1.26959 z"
       id="path17"
       sodipodi:nodetypes="ccccccccccccccccccc" />
    <path
       style="fill:#ff0000;fill-opacity:0;stroke:#cc1a1a;stroke-width:1.065"
       d="m 66.441793,61.363439 78.291287,0.846391 -1.26959,42.74281 48.24436,0.4232 -1.26959,43.166 -52.47632,-5.50155 v 16.92785 l 45.28198,76.5985 -46.97477,4.23196 -22.85259,-57.55468 -12.27268,-2.11597 -27.507754,62.20983 -48.667554,-2.96238 50.360339,-79.13767 0.846392,-19.46703 -53.322712,0.4232 2.539177,-35.97167 h 39.780435 z"
       id="path18" />
  </g>
</svg>
