<?xml version="1.0" encoding="UTF-8" standalone="no"?>
<!-- Created with Inkscape (http://www.inkscape.org/) -->

<svg
   width="210mm"
   height="297mm"
   viewBox="0 0 210 297"
   version="1.1"
   id="svg1"
   inkscape:version="1.4 (e7c3feb1, 2024-10-09)"
   sodipodi:docname="gingerbread3.svg"
   xmlns:inkscape="http://www.inkscape.org/namespaces/inkscape"
   xmlns:sodipodi="http://sodipodi.sourceforge.net/DTD/sodipodi-0.dtd"
   xmlns="http://www.w3.org/2000/svg"
   xmlns:svg="http://www.w3.org/2000/svg">
  <sodipodi:namedview
     id="namedview1"
     pagecolor="#ffffff"
     bordercolor="#000000"
     borderopacity="0.25"
     inkscape:showpageshadow="2"
     inkscape:pageopacity="0.0"
     inkscape:pagecheckerboard="0"
     inkscape:deskcolor="#d1d1d1"
     inkscape:document-units="mm"
     inkscape:zoom="0.62520262"
     inkscape:cx="355.08488"
     inkscape:cy="585.41021"
     inkscape:window-width="1376"
     inkscape:window-height="787"
     inkscape:window-x="0"
     inkscape:window-y="25"
     inkscape:window-maximized="0"
     inkscape:current-layer="layer1"
     inkscape:lockguides="true" />
  <defs
     id="defs1" />
  <g
     inkscape:label="Layer 1"
     inkscape:groupmode="layer"
     id="layer1">
    <path
       style="fill:#000000;fill-opacity:0.626459;stroke:#000000;stroke-width:1.065;stroke-opacity:0.0272374"
       d="m 84.639228,78.291284 23.275782,0.846392 22.8526,-0.846392 -0.4052,18.639422 -0.44119,20.294624 24.10514,0.21523 23.29282,0.20797 0.4232,16.92784 -26.66517,-0.70171 -21.57919,-0.56787 0.4232,28.35413 15.71632,27.71481 23.64091,41.68935 -25.81496,0.8464 -15.41112,-35.04786 -10.82704,-24.6228 -19.043828,-1.26958 -17.226238,33.50857 -13.667078,26.58528 -23.275788,-1.69279 20.841064,-34.80672 20.208961,-33.75105 2.539175,-24.54538 -25.804495,-1.09341 -24.132646,-1.02257 -1.269589,-16.50464 21.970479,-0.55857 27.966663,-0.71102 -0.941918,-21.193181 z"
       id="object"
       sodipodi:nodetypes="cccccccccccccccccccccccccccccc" />
    <path
       style="fill:#000000;fill-opacity:0;stroke:#b42727;stroke-width:1.065;stroke-opacity:1"
       d="m 68.134578,65.595401 0.200298,19.028354 0.222898,21.175275 -27.404423,1.68273 -20.839937,1.27965 0.927094,15.20433 1.188887,19.49775 21.153832,0.35553 29.206507,0.49086 -23.717366,40.19279 -31.721327,53.75675 38.925755,1.13156 33.86398,0.98442 7.088182,-24.32971 8.570072,-29.4162 20.73662,53.74591 34.2841,-0.43954 31.73449,-0.40685 -27.37086,-49.40106 -24.68227,-44.54848 27.89269,1.03306 29.23879,1.08292 -1.777,-22.87892 -1.60857,-20.71028 -27.05684,0.86582 -25.84267,0.82696 0.7273,-22.788857 0.54229,-16.991576 -40.21195,-0.228477 z"
       id="cage"
       sodipodi:nodetypes="cccccccccccccccccccccccccccccc" />
  </g>
</svg>
